{"accessors":[{"bufferView":0,"byteOffset":0,"componentType":5126,"count":412,"max":[763.0537871997841,968.7519935017965,968.7727848515867],"min":[275.4514223961412,31.25200649838075,17.88067337538166],"type":"VEC3"},{"bufferView":1,"byteOffset":0,"componentType":5125,"count":2334,"type":"SCALAR"},{"bufferView":2,"byteOffset":0,"componentType":5126,"count":358,"max":[968.752,968.7520001218215,800.0000081842502],"min":[31.25199999999984,31.251999837110077,399.99999971332824],"type":"VEC3"},{"bufferView":3,"byteOffset":0,"componentType":5125,"count":1926,"type":"SCALAR"},{"bufferView":4,"byteOffset":0,"componentType":5126,"count":356,"max":[968.7520000000001,968.7520000993353,600.0000071818567],"min":[31.251999999999896,31.25199982219044,200.0000005593502],"type":"VEC3"},{"bufferView":5,"byteOffset":0,"componentType":5125,"count":1914,"type":"SCALAR"},{"bufferView":6,"byteOffset":0,"componentType":5126,"count":22,"max":[1000.0,800.0,800.0],"min":[0.0,200.0,200.0],"type":"VEC3"},{"bufferView":7,"byteOffset":0,"componentType":5126,"count":22,"normalized":false,"type":"VEC2"},{"bufferView":8,"byteOffset":0,"componentType":5125,"count":22,"type":"SCALAR"},{"bufferView":10,"byteOffset":0,"componentType":5126,"count":155,"max":[908.6602783203125,510.0,900.0],"min":[91.3397445678711,490.0,200.0],"type":"VEC3"},{"bufferView":11,"byteOffset":0,"componentType":5126,"count":155,"normalized":false,"type":"VEC2"},{"bufferView":12,"byteOffset":0,"componentType":5125,"count":450,"type":"SCALAR"},{"bufferView":14,"byteOffset":0,"componentType":5126,"count":25350,"max":[1000.0,1000.0,1000.0],"min":[0.0,0.0,0.0],"type":"VEC3"},{"bufferView":15,"byteOffset":0,"componentType":5121,"count":49152,"normalized":true,"type":"VEC4"},{"bufferView":16,"byteOffset":0,"componentType":5125,"count":147456,"type":"SCALAR"}],"asset":{"generator":"VTK","version":"2.0"},"bufferViews":[{"buffer":0,"byteLength":4944,"byteOffset":0,"target":34962},{"buffer":1,"byteLength":9336,"byteOffset":0,"target":34963},{"buffer":2,"byteLength":4296,"byteOffset":0,"target":34962},{"buffer":3,"byteLength":7704,"byteOffset":0,"target":34963},{"buffer":4,"byteLength":4272,"byteOffset":0,"target":34962},{"buffer":5,"byteLength":7656,"byteOffset":0,"target":34963},{"buffer":6,"byteLength":264,"byteOffset":0,"target":34962},{"buffer":7,"byteLength":176,"byteOffset":0,"target":34962},{"buffer":8,"byteLength":88,"byteOffset":0,"target":34963},{"buffer":9,"byteLength":105,"byteOffset":0,"target":34962},{"buffer":10,"byteLength":1860,"byteOffset":0,"target":34962},{"buffer":11,"byteLength":1240,"byteOffset":0,"target":34962},{"buffer":12,"byteLength":1800,"byteOffset":0,"target":34963},{"buffer":13,"byteLength":105,"byteOffset":0,"target":34962},{"buffer":14,"byteLength":304200,"byteOffset":0,"target":34962},{"buffer":15,"byteLength":196608,"byteOffset":0,"target":34962},{"buffer":16,"byteLength":589824,"byteOffset":0,"target":34963}],"buffers":[{"byteLength":4944,"uri":"data:application/octet-stream;base64,"},{"byteLength":9336,"uri":"data:application/octet-stream;base64,"},{"byteLength":4296,"uri":"data:application/octet-stream;base64,"},{"byteLength":7704,"uri":"data:application/octet-stream;base64,"},{"byteLength":4272,"uri":"data:application/octet-stream;base64,"},{"byteLength":7656,"uri":"data:application/octet-stream;base64,"},{"byteLength":264,"uri":"data:application/octet-stream;base64,"},{"byteLength":176,"uri":"data:application/octet-stream;base64,"},{"byteLength":88,"uri":"data:application/octet-stream;base64,"},{"byteLength":105,"uri":"data:application/octet-stream;base64,"},{"byteLength":1860,"uri":"data:application/octet-stream;base64,"},{"byteLength":1240,"uri":"data:application/octet-stream;base64,"},{"byteLength":1800,"uri":"data:application/octet-stream;base64,"},{"byteLength":105,"uri":"data:application/octet-stream;base64,"},{"byteLength":304200,"uri":"data:application/octet-stream;base64,"},{"byteLength":196608,"uri":"data:application/octet-stream;base64,"},{"byteLength":589824,"uri":"data:application/octet-stream;base64,"}],"cameras":[{"perspective":{"aspectRatio":1.3333333333333333,"yfov":0.5235987755982988,"zfar":5565.649829655519,"znear":1589.2140092706866},"type":"perspective"}],"images":[{"bufferView":9,"mimeType":"image/png"},{"bufferView":13,"mimeType":"image/png"}],"materials":[{"pbrMetallicRoughness":{"baseColorFactor":[0.00392156862745098,0.32941176470588235,0.5098039215686274,1.0],"metallicFactor":0.0,"roughnessFactor":1.0}},{"pbrMetallicRoughness":{"baseColorFactor":[1.0,0.7450980392156863,0.0,1.0],"metallicFactor":0.0,"roughnessFactor":1.0}},{"pbrMetallicRoughness":{"baseColorFactor":[0.6235294117647059,0.0,0.3215686274509804,1.0],"metallicFactor":0.0,"roughnessFactor":1.0}},{"pbrMetallicRoughness":{"baseColorFactor":[0.6784313725490196,0.8470588235294118,0.9019607843137255,1.0],"baseColorTexture":{"index":0,"texCoord":0},"metallicFactor":0.0,"roughnessFactor":1.0}},{"pbrMetallicRoughness":{"baseColorFactor":[0.6784313725490196,0.8470588235294118,0.9019607843137255,1.0],"baseColorTexture":{"index":1,"texCoord":0},"metallicFactor":0.0,"roughnessFactor":1.0}},{"pbrMetallicRoughness":{"baseColorFactor":[0.6784313725490196,0.8470588235294118,0.9019607843137255,0.5],"metallicFactor":0.0,"roughnessFactor":1.0}}],"meshes":[{"name":"mesh0","primitives":[{"attributes":{"POSITION":0},"indices":1,"material":0,"mode":4}]},{"name":"mesh1","primitives":[{"attributes":{"POSITION":2},"indices":3,"material":1,"mode":4}]},{"name":"mesh2","primitives":[{"attributes":{"POSITION":4},"indices":5,"material":2,"mode":4}]},{"name":"mesh3","primitives":[{"attributes":{"POSITION":6,"TEXCOORD_0":7},"indices":8,"material":3,"mode":0}]},{"name":"mesh4","primitives":[{"attributes":{"POSITION":9,"TEXCOORD_0":10},"indices":11,"material":4,"mode":4}]},{"name":"mesh5","primitives":[{"attributes":{"COLOR_0":13,"POSITION":12},"indices":14,"material":5,"mode":4}]}],"nodes":[{"matrix":[0.0,0.0,1.0000000000000004,0.0,1.0000000000000004,0.0,0.0,0.0,0.0,1.0000000000000004,0.0,0.0,0.0,0.0,0.0,1.0],"mesh":0,"name":"mesh0"},{"matrix":[0.0,0.0,1.0000000000000004,0.0,1.0000000000000004,0.0,0.0,0.0,0.0,1.0000000000000004,0.0,0.0,0.0,0.0,0.0,1.0],"mesh":1,"name":"mesh1"},{"matrix":[0.0,0.0,1.0000000000000004,0.0,1.0000000000000004,0.0,0.0,0.0,0.0,1.0000000000000004,0.0,0.0,0.0,0.0,0.0,1.0],"mesh":2,"name":"mesh2"},{"matrix":[0.0,0.0,1.0000000000000004,0.0,1.0000000000000004,0.0,0.0,0.0,0.0,1.0000000000000004,0.0,0.0,0.0,0.0,0.0,1.0],"mesh":3,"name":"mesh3"},{"matrix":[0.0,0.0,1.0000000000000004,0.0,1.0000000000000004,0.0,0.0,0.0,0.0,1.0000000000000004,0.0,0.0,0.0,0.0,0.0,1.0],"mesh":4,"name":"mesh4"},{"matrix":[0.0,0.0,1.0000000000000004,0.0,1.0000000000000004,0.0,0.0,0.0,0.0,1.0000000000000004,0.0,0.0,0.0,0.0,0.0,1.0],"mesh":5,"name":"mesh5"},{"camera":0,"matrix":[-0.7071067811865476,0.7071067811865476,0.0,-0.0,-0.4082482904638631,-0.4082482904638631,0.8164965809277261,0.0,0.5773502691896258,0.5773502691896258,0.5773502691896258,-0.0,2431.851652578137,2431.851652578137,2431.851652578137,1.0],"name":"Camera Node"},{"children":[0,1,2,3,4,5,6],"name":"Renderer Node"}],"samplers":[{"magFilter":9728,"minFilter":9728,"wrapS":33071,"wrapT":33071},{"magFilter":9728,"minFilter":9728,"wrapS":33071,"wrapT":33071}],"scene":0,"scenes":[{"name":"Layer 0","nodes":[7]}],"textures":[{"sampler":0,"source":0},{"sampler":1,"source":1}]}