{"accessors":[{"bufferView":0,"byteOffset":0,"componentType":5126,"count":192,"max":[-12292462.570280697,4650803.95567976,5277.232449728559],"min":[-12746918.55644524,4198349.380548645,413.7818829953437],"type":"VEC3"},{"bufferView":1,"byteOffset":0,"componentType":5125,"count":1002,"type":"SCALAR"},{"bufferView":2,"byteOffset":0,"componentType":5126,"count":509,"max":[-11521745.0593485,5396555.195834801,4129.3958071672605],"min":[-12787106.760368176,4237929.201160424,399.4039699806476],"type":"VEC3"},{"bufferView":3,"byteOffset":0,"componentType":5125,"count":2802,"type":"SCALAR"},{"bufferView":4,"byteOffset":0,"componentType":5126,"count":314,"max":[-11500192.66361788,5451602.349207677,4305.0317570859015],"min":[-12337961.17100113,4754389.931723147,812.0698541435584],"type":"VEC3"},{"bufferView":5,"byteOffset":0,"componentType":5125,"count":1680,"type":"SCALAR"},{"bufferView":6,"byteOffset":0,"componentType":5126,"count":41,"max":[-11500150.42,5469693.444,3493.0],"min":[-12786795.34,4198229.617,1203.0],"type":"VEC3"},{"bufferView":7,"byteOffset":0,"componentType":5126,"count":41,"normalized":false,"type":"VEC2"},{"bufferView":8,"byteOffset":0,"componentType":5125,"count":41,"type":"SCALAR"},{"bufferView":10,"byteOffset":0,"componentType":5126,"count":93,"max":[-12366778.0,5469701.0,2677.217041015625],"min":[-12786838.0,4657366.5,1827.802001953125],"type":"VEC3"},{"bufferView":11,"byteOffset":0,"componentType":5126,"count":93,"normalized":false,"type":"VEC2"},{"bufferView":12,"byteOffset":0,"componentType":5125,"count":270,"type":"SCALAR"},{"bufferView":14,"byteOffset":0,"componentType":5126,"count":25350,"max":[-11500050.42,5469793.444,3593.0],"min":[-12786895.34,4198129.617,1103.0],"type":"VEC3"},{"bufferView":15,"byteOffset":0,"componentType":5121,"count":49152,"normalized":true,"type":"VEC4"},{"bufferView":16,"byteOffset":0,"componentType":5125,"count":147456,"type":"SCALAR"}],"asset":{"generator":"VTK","version":"2.0"},"bufferViews":[{"buffer":0,"byteLength":2304,"byteOffset":0,"target":34962},{"buffer":1,"byteLength":4008,"byteOffset":0,"target":34963},{"buffer":2,"byteLength":6108,"byteOffset":0,"target":34962},{"buffer":3,"byteLength":11208,"byteOffset":0,"target":34963},{"buffer":4,"byteLength":3768,"byteOffset":0,"target":34962},{"buffer":5,"byteLength":6720,"byteOffset":0,"target":34963},{"buffer":6,"byteLength":492,"byteOffset":0,"target":34962},{"buffer":7,"byteLength":328,"byteOffset":0,"target":34962},{"buffer":8,"byteLength":164,"byteOffset":0,"target":34963},{"buffer":9,"byteLength":105,"byteOffset":0,"target":34962},{"buffer":10,"byteLength":1116,"byteOffset":0,"target":34962},{"buffer":11,"byteLength":744,"byteOffset":0,"target":34962},{"buffer":12,"byteLength":1080,"byteOffset":0,"target":34963},{"buffer":13,"byteLength":105,"byteOffset":0,"target":34962},{"buffer":14,"byteLength":304200,"byteOffset":0,"target":34962},{"buffer":15,"byteLength":196608,"byteOffset":0,"target":34962},{"buffer":16,"byteLength":589824,"byteOffset":0,"target":34963}],"buffers":[{"byteLength":2304,"uri":"data:application/octet-stream;base64,"},{"byteLength":4008,"uri":"data:application/octet-stream;base64,"},{"byteLength":6108,"uri":"data:application/octet-stream;base64,"},{"byteLength":11208,"uri":"data:application/octet-stream;base64,"},{"byteLength":3768,"uri":"data:application/octet-stream;base64,"},{"byteLength":6720,"uri":"data:application/octet-stream;base64,"},{"byteLength":492,"uri":"data:application/octet-stream;base64,"},{"byteLength":328,"uri":"data:application/octet-stream;base64,"},{"byteLength":164,"uri":"data:application/octet-stream;base64,"},{"byteLength":105,"uri":"data:application/octet-stream;base64,"},{"byteLength":1116,"uri":"data:application/octet-stream;base64,"},{"byteLength":744,"uri":"data:application/octet-stream;base64,"},{"byteLength":1080,"uri":"data:application/octet-stream;base64,"},{"byteLength":105,"uri":"data:application/octet-stream;base64,"},{"byteLength":304200,"uri":"data:application/octet-stream;base64,"},{"byteLength":196608,"uri":"data:application/octet-stream;base64,"},{"byteLength":589824,"uri":"data:application/octet-stream;base64,"}],"cameras":[{"perspective":{"aspectRatio":1.3333333333333333,"yfov":0.5235987755982988,"zfar":5399416.698344894,"znear":1988901.9012313967},"type":"perspective"}],"images":[{"bufferView":9,"mimeType":"image/png"},{"bufferView":13,"mimeType":"image/png"}],"materials":[{"pbrMetallicRoughness":{"baseColorFactor":[1.0,0.7450980392156863,0.0,1.0],"metallicFactor":0.0,"roughnessFactor":1.0}},{"pbrMetallicRoughness":{"baseColorFactor":[0.6235294117647059,0.0,0.3215686274509804,1.0],"metallicFactor":0.0,"roughnessFactor":1.0}},{"pbrMetallicRoughness":{"baseColorFactor":[0.00392156862745098,0.32941176470588235,0.5098039215686274,1.0],"metallicFactor":0.0,"roughnessFactor":1.0}},{"pbrMetallicRoughness":{"baseColorFactor":[0.6784313725490196,0.8470588235294118,0.9019607843137255,1.0],"baseColorTexture":{"index":0,"texCoord":0},"metallicFactor":0.0,"roughnessFactor":1.0}},{"pbrMetallicRoughness":{"baseColorFactor":[0.6784313725490196,0.8470588235294118,0.9019607843137255,1.0],"baseColorTexture":{"index":1,"texCoord":0},"metallicFactor":0.0,"roughnessFactor":1.0}},{"pbrMetallicRoughness":{"baseColorFactor":[0.6784313725490196,0.8470588235294118,0.9019607843137255,0.5],"metallicFactor":0.0,"roughnessFactor":1.0}}],"meshes":[{"name":"mesh0","primitives":[{"attributes":{"POSITION":0},"indices":1,"material":0,"mode":4}]},{"name":"mesh1","primitives":[{"attributes":{"POSITION":2},"indices":3,"material":1,"mode":4}]},{"name":"mesh2","primitives":[{"attributes":{"POSITION":4},"indices":5,"material":2,"mode":4}]},{"name":"mesh3","primitives":[{"attributes":{"POSITION":6,"TEXCOORD_0":7},"indices":8,"material":3,"mode":0}]},{"name":"mesh4","primitives":[{"attributes":{"POSITION":9,"TEXCOORD_0":10},"indices":11,"material":4,"mode":4}]},{"name":"mesh5","primitives":[{"attributes":{"COLOR_0":13,"POSITION":12},"indices":14,"material":5,"mode":4}]}],"nodes":[{"matrix":[0.0,0.0,1.0000000000000004,0.0,1.0000000000000004,0.0,0.0,0.0,0.0,1.0000000000000004,0.0,0.0,0.0,0.0,0.0,1.0],"mesh":0,"name":"mesh0"},{"matrix":[0.0,0.0,1.0000000000000004,0.0,1.0000000000000004,0.0,0.0,0.0,0.0,1.0000000000000004,0.0,0.0,0.0,0.0,0.0,1.0],"mesh":1,"name":"mesh1"},{"matrix":[0.0,0.0,1.0000000000000004,0.0,1.0000000000000004,0.0,0.0,0.0,0.0,1.0000000000000004,0.0,0.0,0.0,0.0,0.0,1.0],"mesh":2,"name":"mesh2"},{"matrix":[0.0,0.0,1.0000000000000004,0.0,1.0000000000000004,0.0,0.0,0.0,0.0,1.0000000000000004,0.0,0.0,0.0,0.0,0.0,1.0],"mesh":3,"name":"mesh3"},{"matrix":[0.0,0.0,1.0000000000000004,0.0,1.0000000000000004,0.0,0.0,0.0,0.0,1.0000000000000004,0.0,0.0,0.0,0.0,0.0,1.0],"mesh":4,"name":"mesh4"},{"matrix":[0.0,0.0,1.0000000000000004,0.0,1.0000000000000004,0.0,0.0,0.0,0.0,1.0000000000000004,0.0,0.0,0.0,0.0,0.0,1.0],"mesh":5,"name":"mesh5"},{"camera":0,"matrix":[-0.7071067811865476,0.7071067811865476,0.0,-0.0,-0.4082482904638631,-0.4082482904638631,0.8164965809277261,0.0,0.5773502691896258,0.5773502691896258,0.5773502691896258,-0.0,-10125603.217552822,6851831.192947177,2020217.662447177,1.0],"name":"Camera Node"},{"children":[0,1,2,3,4,5,6],"name":"Renderer Node"}],"samplers":[{"magFilter":9728,"minFilter":9728,"wrapS":33071,"wrapT":33071},{"magFilter":9728,"minFilter":9728,"wrapS":33071,"wrapT":33071}],"scene":0,"scenes":[{"name":"Layer 0","nodes":[7]}],"textures":[{"sampler":0,"source":0},{"sampler":1,"source":1}]}